# xmcd CD database file
#
# Track frame offsets:
#	150
#	31015
#	41539
#	60485
#	86502
#	108002
#	123570
#	132790
#	156340
#	178590
#	197247
#
# Disc length: 2901 seconds
#
# Revision: 0
# Processed by: cddbd v1.5PL3 Copyright (c) Steve Scherf et al.
# Submitted via: CDex 1.51
#
DISCID=880b530b
DTITLE=Andre Andersen - Ocean View
DYEAR=2003
DGENRE=Instrumental Pop
TTITLE0=Horizons
TTITLE1=Martial Arts
TTITLE2=The Autumn Song
TTITLE3=Ocean View
TTITLE4=Heather Waltz
TTITLE5=Latin Affair
TTITLE6=Third Stage
TTITLE7=Arabesque
TTITLE8=Hourglass
TTITLE9=Moving Pictures
TTITLE10=1000 Miles Away
EXTD=YEAR: 2003
EXTT0=
EXTT1=
EXTT2=
EXTT3=
EXTT4=
EXTT5=
EXTT6=
EXTT7=
EXTT8=
EXTT9=
EXTT10=
PLAYORDER=
